<?xml version="1.0" encoding="UTF-8"?>
<svg id="Layer_1" data-name="Layer 1" xmlns="http://www.w3.org/2000/svg" xmlns:xlink="http://www.w3.org/1999/xlink" viewBox="0 0 4782 1888">
  <defs>
    <style>
      .cls-1 {
        fill: url(#linear-gradient-2);
      }

      .cls-2 {
        fill: #231f20;
      }

      .cls-3 {
        fill: url(#linear-gradient);
      }

      .cls-4, .cls-5 {
        fill: #fff;
      }

      .cls-5 {
        stroke: #fff;
        stroke-miterlimit: 10;
      }
    </style>
    <linearGradient id="linear-gradient" x1="1344.58" y1="-43.15" x2="1813.08" y2="-43.15" gradientTransform="translate(0 1706.1) scale(1 -1)" gradientUnits="userSpaceOnUse">
      <stop offset="0" stop-color="#56caf5"/>
      <stop offset="1" stop-color="#83cdb7"/>
    </linearGradient>
    <linearGradient id="linear-gradient-2" x1="3152.17" y1="437.24" x2="4596.44" y2="437.24" gradientTransform="translate(0 1706.1) scale(1 -1)" gradientUnits="userSpaceOnUse">
      <stop offset="0" stop-color="#56caf5"/>
      <stop offset="1" stop-color="#83cdb7"/>
    </linearGradient>
  </defs>
  <path class="cls-4" d="M873.22,908.59l-114.67,169.59c-10.62,15.82-31.43,20.69-48.16,11.76-55.1-30.02-175.08-89.26-244.45-79.12-8.17,1.21-16.32,2.02-24.49,2.02-15.91,0-30.61,4.06-44.48,17.85-35.92,35.3-22.44,95.75,24.49,115.22,20.4,8.51,48.16,14.61,86.92,16.23,0,0,230.98,26.38,368.52,183.79,0,0,112.22,173.25,15.5,322.15,0,0-115.49,214.22-393.41,214.22,0,0-284.04,28.81-487.68-137.13-14.28-11.76-17.55-32.45-7.35-47.88l106.52-163.91c11.43-17.45,35.1-22.31,52.24-10.14,55.5,38.94,177.94,113.2,296.28,106.31,0,0,101.62,11.36,126.11-93.72,0,0,7.76-114.41-207.72-120.09-82.03-2.02-161.6-30.43-224.46-83.18-62.84-52.74-112.22-129.02-111.82-249.52v-12.58c-.82-27.58,3.27-171.21,168.95-267.38,66.93-38.94,143.24-58.43,220.78-59.24,106.93-1.21,288.93,14.2,432.18,114,16.73,11.76,20.81,34.07,9.8,50.71h.41v.03Z"/>
  <path class="cls-3" d="M1344.99,1876.24s359.13,48.68,468.09-256.82l-82.44,10.14-310.56,202.05-75.5,45.04h0l.41-.4h0Z"/>
  <path class="cls-4" d="M2661.51,1139.85c-62.84-131.05-339.13-137.54-339.13-137.54-138.75-8.12-278.74,56.81-337.5,87.64-15.5,8.12-20.4,28-10.21,42.19l100.8,140.78c8.57,11.76,24.08,15.82,37.13,10.14,287.71-129.83,339.95,17.05,339.95,17.05l3.27,59.24-257.92,4.06c-146.51-10.14-207.31,61.68-207.31,61.68l-7.76-10.56c-45.71-107.93-174.67-121.31-174.67-121.31-108.56-321.74-466.05-277.91-466.05-277.91-364.43,77.5-374.64,387.47-374.64,387.47-16.73,257.63,128.55,358.66,128.55,358.66,118.35,126.58,248.13,114.82,248.13,114.82l263.22-162.7c20.4-13.8,41.22-23.94,63.25-36.12,157.93-87.24,228.13-26.38,228.13-26.38,10.61,114.41,100.39,172.83,100.39,172.83,98.35,79.12,196.71,62.48,196.71,62.48,182.02,2.02,253.03-89.26,253.03-89.26l4.9,90.88h256.69v-621.57c-6.12-77.08-50.2-127-50.2-127h0l1.22.4h.02v.02ZM2455.83,1592.64s-6.53,40.17-65.7,78.7c-59.18,38.94-151,25.15-151,25.15-69.38-8.93-61.62-82.77-61.62-82.77,15.1-93.72,120.39-90.08,120.39-90.08h158.34v68.57h0l-.41.4h0v.02Z"/>
  <path class="cls-4" d="M2755.37,1017.32h271.8v130.64s79.99-149.31,300.77-141.2v261.69s-219.15-34.07-286.48,152.56h0c-5.72,18.25-8.57,36.92-8.57,55.99l-4.08,411h-266.9l-6.53-871.08h0v.41h-.01Z"/>
  <path class="cls-4" d="M3320.19,739.4h407.69l237.1,334.72,416.26-561.52-164.05-99,564.81-224.77-17.55,596.81-141.61-112.38-436.26,627.65,407.69,583.84h-436.26l-217.11-310.78-226.09,310.78h-564.81s199.16-92.91,316.69-256.01l241.59-320.92-387.7-568.82h0l-.41.41h.02Z"/>
  <path class="cls-1" d="M4522.17,652.98s-895.37,1062.19-1370,1231.77h564.81l226.09-310.78,217.11,310.78h436.26l-407.69-583.84s288.93-357.04,333.42-647.94h0Z"/>
  <path class="cls-2" d="M1967.74,1652.28s30.2-77.5-53.87-86.01c0,0-127.33-36.51-243.64,12.98,0,0-84.07,16.63-193.85,170,0,0-17.14-73.03,36.72-135.51l-142.43,88.44s-10.61-38.94,101.21-148.5l-187.72,55.99,139.98-144.03-211.39,15.01,172.63-96.97s-226.5-12.98-275.88-148.5c0,0,217.93,79.52,327.71,73.03,0,0,284.44-17.85,351.38,24.34,0,0,112.22,29.21,122.84,102.64,0,0,222.01,36.51,55.91,217.46h0l.41-.4v.02h0Z"/>
  <path class="cls-4" d="M1715.13,1387.34v4.06c4.08,64.11,52.24,68.97,52.24,68.97,68.56,8.12,78.77-36.51,78.77-36.51-12.65-23.94-82.03-33.68-124.47-37.32-2.45,0-33.06-2.02-33.06-2.02"/>
  <line class="cls-5" x1="1882.04" y1="1496.07" x2="1923.67" y2="1475.38"/>
</svg>