<?xml version="1.0" encoding="UTF-8"?>
<svg id="Layer_1" data-name="Layer 1" xmlns="http://www.w3.org/2000/svg" xmlns:xlink="http://www.w3.org/1999/xlink" viewBox="0 0 4782 1888">
  <defs>
    <style>
      .cls-1 {
        fill: url(#linear-gradient-2);
      }

      .cls-2 {
        fill: #231f20;
      }

      .cls-3 {
        fill: none;
        stroke: #fff;
        stroke-miterlimit: 10;
      }

      .cls-4 {
        fill: url(#linear-gradient);
      }

      .cls-5 {
        fill: #fff;
      }
    </style>
    <linearGradient id="linear-gradient" x1="1345.99" y1="2853.72" x2="1814.3" y2="2853.72" gradientTransform="translate(0 -1119.9)" gradientUnits="userSpaceOnUse">
      <stop offset="0" stop-color="#51caf5"/>
      <stop offset="1" stop-color="#83cdb7"/>
    </linearGradient>
    <linearGradient id="linear-gradient-2" x1="3149.86" y1="2319.96" x2="4593.54" y2="2319.96" gradientTransform="translate(0 -1119.9)" gradientUnits="userSpaceOnUse">
      <stop offset="0" stop-color="#51caf5"/>
      <stop offset="1" stop-color="#83cdb7"/>
    </linearGradient>
  </defs>
  <path class="cls-5" d="M874.83,799.74l-114.63,188.44c-10.61,17.58-31.41,22.99-48.14,13.07-55.07-33.36-175-99.18-244.35-87.91-8.16,1.35-16.32,2.25-24.48,2.25-15.91,0-30.59,4.51-44.46,19.84-35.9,39.22-22.44,106.39,24.48,128.03,20.4,9.47,48.14,16.23,86.89,18.03,0,0,230.89,29.3,368.36,204.22,0,0,112.18,192.5,15.5,357.94,0,0-115.44,238.03-393.25,238.03,0,0-283.92,32.01-487.48-152.37-14.28-13.07-17.54-36.06-7.34-53.2l106.47-182.13c11.42-19.38,35.08-24.79,52.22-11.27,55.48,43.28,177.86,125.78,296.16,118.11,0,0,101.57,12.62,126.05-104.14,0,0,7.75-127.13-207.64-133.44-81.99-2.25-161.54-33.81-224.36-92.42-62.82-58.61-112.18-143.36-111.77-277.25v-13.98c-.82-30.66,3.26-190.24,168.88-297.08,66.9-43.28,143.18-64.92,220.69-65.82,106.88-1.35,288.82,15.78,432,126.68,16.73,13.07,20.8,37.87,9.79,56.35h.41Z"/>
  <path class="cls-4" d="M1346.4,1874.93s358.98,54.1,467.9-285.36l-82.4,11.27-310.44,224.5-75.47,50.04h0l.41-.45Z"/>
  <path class="cls-5" d="M2662.39,1056.7c-62.82-145.61-338.99-152.83-338.99-152.83-138.7-9.02-278.62,63.11-337.36,97.38-15.5,9.02-20.4,31.11-10.2,46.88l100.76,156.43c8.57,13.07,24.07,17.58,37.12,11.27,287.59-144.26,339.81,18.93,339.81,18.93l3.26,65.82-257.81,4.51c-146.45-11.27-207.23,68.52-207.23,68.52l-7.75-11.72c-45.69-119.92-174.59-134.79-174.59-134.79-108.51-357.49-465.86-308.81-465.86-308.81-364.28,86.11-374.48,430.53-374.48,430.53-16.73,286.27,128.5,398.52,128.5,398.52,118.3,140.65,248.02,127.58,248.02,127.58l263.12-180.78c20.4-15.33,41.2-26.6,63.23-40.12,157.87-96.92,228.03-29.3,228.03-29.3,10.61,127.13,100.35,192.05,100.35,192.05,98.31,87.91,196.62,69.43,196.62,69.43,181.94,2.25,252.92-99.18,252.92-99.18l4.9,100.98h256.59v-690.64c-6.12-85.65-50.18-141.1-50.18-141.1h0l1.22.45h0ZM2456.79,1559.81s-6.53,44.63-65.68,87.46c-59.15,43.28-150.93,27.95-150.93,27.95-69.35-9.92-61.6-91.97-61.6-91.97,15.09-104.14,120.34-100.08,120.34-100.08h158.28v76.19h0l-.41.45h0Z"/>
  <path class="cls-5" d="M2756.21,920.56h271.68v145.16s79.95-165.9,300.65-156.88v290.77s-219.06-37.87-286.37,169.51h0c-5.71,20.29-8.57,41.02-8.57,62.21l-4.08,456.67h-266.79l-6.53-967.89h0v.45h0Z"/>
  <path class="cls-5" d="M3320.79,611.75h407.52l237.01,371.92,416.09-623.92-163.99-110L4782,0l-17.54,663.14-141.55-124.87-436.08,697.41,407.52,648.72h-436.08l-217.02-345.32-225.99,345.32h-564.58s199.07-103.24,316.55-284.46l241.5-356.59-387.54-632.04h0l-.41.45h0Z"/>
  <path class="cls-1" d="M4519.29,515.73s-895,1180.23-1369.43,1368.66h564.58l225.99-345.32,217.02,345.32h436.08l-407.52-648.72s288.82-396.71,333.28-719.95h0Z"/>
  <path class="cls-2" d="M1968.9,1626.08s30.19-86.1-53.85-95.57c0,0-127.27-40.57-243.54,14.43,0,0-84.03,18.48-193.77,188.89,0,0-17.13-81.15,36.71-150.57l-142.37,98.28s-10.61-43.28,101.17-165l-187.65,62.21,139.92-160.04-211.31,16.68,172.56-107.74s-226.4-14.43-275.76-165c0,0,217.84,88.36,327.57,81.15,0,0,284.33-19.84,351.23,27.05,0,0,112.18,32.46,122.79,114.06,0,0,221.91,40.57,55.89,241.64h0l.41-.45h0Z"/>
  <path class="cls-5" d="M1716.39,1331.7v4.51c4.08,71.23,52.22,76.64,52.22,76.64,68.53,9.02,78.73-40.57,78.73-40.57-12.65-26.6-81.99-37.42-124.42-41.47-2.45,0-33.04-2.25-33.04-2.25"/>
  <line class="cls-3" x1="1883.24" y1="1452.52" x2="1924.85" y2="1429.52"/>
</svg>