<?xml version="1.0" encoding="UTF-8"?>
<svg id="Layer_1" data-name="Layer 1" xmlns="http://www.w3.org/2000/svg" xmlns:xlink="http://www.w3.org/1999/xlink" viewBox="0 0 4782 1888">
  <defs>
    <style>
      .cls-1 {
        fill: none;
        stroke: #231f20;
        stroke-miterlimit: 10;
      }

      .cls-2 {
        fill: url(#linear-gradient-2);
      }

      .cls-3 {
        fill: url(#linear-gradient);
      }

      .cls-4 {
        fill: #fff;
      }

      .cls-5 {
        fill: #233245;
      }

      .cls-6 {
        fill: #222f42;
      }
    </style>
    <linearGradient id="linear-gradient" x1="1345.13" y1="-42.27" x2="1813.82" y2="-42.27" gradientTransform="translate(0 1706.1) scale(1 -1)" gradientUnits="userSpaceOnUse">
      <stop offset="0" stop-color="#56caf5"/>
      <stop offset="1" stop-color="#83cdb7"/>
    </linearGradient>
    <linearGradient id="linear-gradient-2" x1="3153.47" y1="441.12" x2="4598.33" y2="441.12" xlink:href="#linear-gradient"/>
  </defs>
  <path class="cls-6" d="M873.58,902.44l-114.72,170.66c-10.62,15.92-31.44,20.82-48.18,11.84-55.12-30.21-175.15-89.82-244.55-79.61-8.17,1.22-16.33,2.04-24.5,2.04-15.92,0-30.62,4.08-44.5,17.96-35.93,35.52-22.45,96.35,24.5,115.95,20.41,8.57,48.18,14.7,86.96,16.33,0,0,231.08,26.54,368.67,184.95,0,0,112.27,174.33,15.51,324.17,0,0-115.54,215.57-393.57,215.57,0,0-284.16,28.99-487.88-137.99-14.29-11.84-17.56-32.66-7.35-48.18l106.56-164.94c11.43-17.56,35.11-22.45,52.26-10.21,55.52,39.19,178.01,113.91,296.4,106.97,0,0,101.66,11.43,126.16-94.31,0,0,7.76-115.13-207.81-120.85-82.06-2.04-161.67-30.62-224.55-83.7-62.87-53.07-112.27-129.83-111.87-251.09v-12.66c-.82-27.76,3.27-172.29,169.02-269.05,66.96-39.19,143.3-58.79,220.87-59.61,106.97-1.22,289.05,14.29,432.36,114.72,16.74,11.84,20.82,34.29,9.8,51.03h.41Z"/>
  <path class="cls-3" d="M1345.54,1876.16s359.28,48.99,468.28-258.43l-82.47,10.21-310.69,203.32-75.53,45.32h0l.41-.41Z"/>
  <path class="cls-6" d="M2662.61,1135.15c-62.87-131.87-339.27-138.4-339.27-138.4-138.81-8.17-278.85,57.16-337.64,88.19-15.51,8.17-20.41,28.17-10.21,42.46l100.84,141.67c8.57,11.84,24.09,15.92,37.15,10.21,287.83-130.65,340.09,17.15,340.09,17.15l3.27,59.61-258.03,4.08c-146.57-10.21-207.4,62.06-207.4,62.06l-7.76-10.62c-45.73-108.6-174.74-122.07-174.74-122.07-108.6-323.76-466.24-279.66-466.24-279.66-364.58,77.98-374.79,389.9-374.79,389.9-16.74,259.25,128.6,360.91,128.6,360.91,118.4,127.38,248.23,115.54,248.23,115.54l263.33-163.72c20.41-13.88,41.24-24.09,63.28-36.34,158-87.78,228.22-26.54,228.22-26.54,10.61,115.13,100.43,173.92,100.43,173.92,98.39,79.61,196.79,62.87,196.79,62.87,182.09,2.04,253.13-89.82,253.13-89.82l4.9,91.45h256.8v-625.47c-6.12-77.57-50.22-127.79-50.22-127.79h0l1.22.41ZM2456.84,1590.78s-6.53,40.42-65.73,79.2c-59.2,39.19-151.06,25.31-151.06,25.31-69.41-8.98-61.65-83.29-61.65-83.29,15.11-94.31,120.44-90.64,120.44-90.64h158.41v69h0l-.41.41Z"/>
  <path class="cls-6" d="M2756.51,1011.86h271.91v131.46s80.02-150.24,300.89-142.08v263.33s-219.24-34.29-286.6,153.51h0c-5.72,18.37-8.57,37.15-8.57,56.34l-4.08,413.58h-267.01l-6.53-876.55h0v.41Z"/>
  <path class="cls-6" d="M3321.56,732.19h407.86l237.2,336.82,416.43-565.04-164.12-99.62,565.04-226.18-17.56,600.56-141.67-113.09-436.44,631.59,407.86,587.5h-436.44l-217.2-312.73-226.18,312.73h-565.04s199.24-93.49,316.82-257.62l241.69-322.94-387.86-572.39h0l-.41.41Z"/>
  <path class="cls-2" d="M4524.03,645.23s-895.74,1068.85-1370.56,1239.5h565.04l226.18-312.73,217.2,312.73h436.44l-407.86-587.5s289.05-359.28,333.56-652.01h0Z"/>
  <path class="cls-4" d="M1968.55,1650.8s30.21-77.98-53.89-86.55c0,0-127.38-36.74-243.74,13.06,0,0-84.1,16.74-193.93,171.06,0,0-17.15-73.49,36.74-136.36l-142.49,89s-10.61-39.19,101.25-149.43l-187.8,56.34,140.04-144.94-211.48,15.11,172.7-97.58s-226.59-13.06-275.99-149.43c0,0,218.02,80.02,327.84,73.49,0,0,284.56-17.96,351.52,24.5,0,0,112.27,29.4,122.89,103.29,0,0,222.1,36.74,55.93,218.83h0l.41-.41Z"/>
  <path class="cls-5" d="M1715.84,1384.2v4.08c4.08,64.51,52.26,69.41,52.26,69.41,68.59,8.17,78.8-36.74,78.8-36.74-12.66-24.09-82.06-33.89-124.52-37.56-2.45,0-33.07-2.04-33.07-2.04"/>
  <line class="cls-1" x1="1882.82" y1="1493.61" x2="1924.46" y2="1472.79"/>
</svg>