<svg xmlns="http://www.w3.org/2000/svg" xmlns:xlink="http://www.w3.org/1999/xlink" width="1080" zoomAndPan="magnify" viewBox="0 0 810 809.999993" height="1080" preserveAspectRatio="xMidYMid meet" version="1.2"><defs><clipPath id="f8ee273d41"><path d="M 67 228 L 665 228 L 665 795 L 67 795 Z M 67 228 "/></clipPath><clipPath id="f773d62984"><path d="M 633.675781 228.433594 C 633.675781 228.433594 263.460938 716.433594 67.203125 794.355469 L 300.738281 794.355469 L 394.222656 651.574219 L 483.996094 794.355469 L 664.386719 794.355469 L 495.808594 526.117188 C 495.808594 526.117188 615.269531 362.089844 633.675781 228.433594 Z M 633.675781 228.433594 "/></clipPath></defs><g id="30b3a0b723"><path style=" stroke:none;fill-rule:nonzero;fill:#5bcae6;fill-opacity:1;" d="M 136.683594 268.136719 L 305.261719 268.136719 L 403.304688 421.925781 L 575.421875 163.941406 L 507.585938 118.457031 L 741.117188 15.191406 L 733.863281 289.386719 L 675.316406 237.746094 L 494.925781 526.105469 L 663.503906 794.34375 L 483.113281 794.34375 L 393.339844 651.5625 L 299.855469 794.34375 L 66.320312 794.34375 C 66.320312 794.34375 148.667969 751.664062 197.265625 676.71875 L 297.160156 529.28125 L 136.855469 267.941406 L 136.683594 268.125 Z M 136.683594 268.136719 "/><g clip-rule="nonzero" clip-path="url(#f8ee273d41)"><g clip-rule="nonzero" clip-path="url(#f773d62984)"><path style=" stroke:none;fill-rule:nonzero;fill:#5bcae6;fill-opacity:1;" d="M 67.203125 228.433594 L 67.203125 794.355469 L 664.386719 794.355469 L 664.386719 228.433594 Z M 67.203125 228.433594 "/></g></g></g></svg>